<svg id="Vidste_du" data-name="Vidste du" xmlns="http://www.w3.org/2000/svg" viewBox="0 0 72 72"><defs><style>.cls-1{fill:#052951;}</style></defs><title>AB_ikon_vidsteDu</title><path class="cls-1" d="M37,11V3H35v8Z"/><path class="cls-1" d="M56,22.87l7.18-3.53L64,21.13l-7.18,3.53Z"/><path class="cls-1" d="M18.73,46.23l-6.18,5.08-1.27-1.55,6.18-5.08Z"/><path class="cls-1" d="M53.27,46.23l6.18,5.08,1.27-1.55-6.18-5.08Z"/><path class="cls-1" d="M58,34,66,34l0,2L58,36Z"/><path class="cls-1" d="M6,34,14,34l0,2L6,36Z"/><path class="cls-1" d="M47.69,13.45l5.08-6.18,1.54,1.27-5.08,6.18Z"/><path class="cls-1" d="M15.75,22.87,8.57,19.34l-.88,1.79,7.18,3.53Z"/><path class="cls-1" d="M24,13.45,18.95,7.28,17.4,8.55l5.08,6.18Z"/><rect class="cls-1" x="27.93" y="57.59" width="16.24" height="2.43" rx="1.21" ry="1.21"/><rect class="cls-1" x="27.93" y="61.19" width="16.24" height="2.43" rx="1.21" ry="1.21"/><path class="cls-1" d="M36.05,65H29.15l2.3,3.62a1.36,1.36,0,0,0,1.15.63h6.91a1.36,1.36,0,0,0,1.15-.63L43,65Z"/><path class="cls-1" d="M36.05,14A18.95,18.95,0,0,0,25.51,48.68L27.59,55a1.62,1.62,0,0,0,1.55,1.13l6.91.18L43,56.15A1.62,1.62,0,0,0,44.51,55l2.09-6.33A18.95,18.95,0,0,0,36.05,14Zm1.23,40.92H34.82V37.57a2.31,2.31,0,0,1,2.47,0Z"/></svg>