<?xml version="1.0" encoding="utf-8"?>
<!-- Generator: Adobe Illustrator 22.1.0, SVG Export Plug-In . SVG Version: 6.00 Build 0)  -->
<svg version="1.1" id="Lag_1" xmlns="http://www.w3.org/2000/svg" xmlns:xlink="http://www.w3.org/1999/xlink" x="0px" y="0px"
	 viewBox="0 0 187.3 187.3" style="enable-background:new 0 0 187.3 187.3;" xml:space="preserve">
<style type="text/css">
	.st0{fill:#FFFFFF;}
</style>
<path class="st0" d="M93.7,1.7C43.1,1.7,2,42.9,2,93.4s41.1,91.7,91.7,91.7s91.7-41.1,91.7-91.7S144.2,1.7,93.7,1.7z M89.2,49.1
	c-11.5-0.4-21.6-2.5-30.1-5.1c1.4-3.5,3-6.9,4.7-10c7.1-12.9,16-20.8,25.4-22.7V49.1z M89.2,58.1v30.9H50.4
	c0.4-12.9,2.3-25.3,5.7-36.4C65.3,55.4,76.5,57.6,89.2,58.1z M89.2,97.9v30.9c-12.7,0.4-23.8,2.7-33.1,5.5
	c-3.4-11.1-5.3-23.4-5.7-36.4H89.2z M89.2,137.8v37.9c-9.4-1.9-18.3-9.8-25.4-22.7c-1.7-3.1-3.3-6.5-4.7-10.1
	C67.5,140.3,77.7,138.2,89.2,137.8z M98.2,137.8c11.5,0.4,21.6,2.5,30.1,5.1c-1.4,3.5-3,6.9-4.7,10c-7.1,12.9-16,20.8-25.4,22.7
	V137.8z M98.2,128.8V97.9H137c-0.4,12.9-2.3,25.3-5.7,36.4C122,131.5,110.8,129.2,98.2,128.8z M98.2,88.9V58.1
	c12.7-0.4,23.8-2.7,33.1-5.5c3.4,11.1,5.3,23.4,5.7,36.4H98.2z M98.2,49.1V11.2c9.4,1.9,18.3,9.8,25.4,22.7c1.7,3.1,3.3,6.5,4.7,10
	C119.8,46.6,109.6,48.6,98.2,49.1z M131.5,29.6c-3-5.4-6.3-10.1-9.8-14c11.2,4,21.3,10.4,29.6,18.6c-3.3,1.9-8.2,4.4-14.5,6.8
	C135.2,37,133.4,33.2,131.5,29.6z M55.9,29.6c-2,3.6-3.7,7.4-5.3,11.4c-6.3-2.5-11.2-5-14.5-6.8c8.4-8.1,18.4-14.5,29.6-18.6
	C62.1,19.5,58.8,24.2,55.9,29.6z M47.6,49.6c-3.7,12-5.8,25.4-6.2,39.3H11.1c1-18.1,7.8-34.7,18.7-47.9
	C33.3,43.1,39.4,46.5,47.6,49.6z M41.4,97.9c0.4,13.9,2.5,27.3,6.2,39.3c-8.2,3.2-14.2,6.5-17.8,8.6c-10.9-13.2-17.7-29.8-18.7-47.9
	H41.4z M50.5,145.8c1.6,4,3.4,7.9,5.3,11.4c3,5.4,6.3,10.1,9.8,14c-11.2-4-21.3-10.4-29.6-18.6C39.3,150.8,44.2,148.3,50.5,145.8z
	 M131.5,157.2c2-3.6,3.7-7.4,5.3-11.4c6.3,2.5,11.2,5,14.5,6.8c-8.4,8.1-18.4,14.5-29.6,18.6C125.2,167.3,128.5,162.7,131.5,157.2z
	 M139.8,137.2c3.7-12,5.8-25.4,6.2-39.3h30.3c-1,18.1-7.8,34.7-18.7,47.9C154,143.7,147.9,140.4,139.8,137.2z M146,88.9
	c-0.4-13.9-2.5-27.3-6.2-39.3c8.2-3.1,14.2-6.5,17.8-8.6c10.9,13.2,17.7,29.8,18.7,47.9H146z"/>
</svg>
