<svg xmlns="http://www.w3.org/2000/svg" width="88.677" height="70.942" viewBox="0 0 88.677 70.942">
  <path id="Icon_awesome-ambulance" data-name="Icon awesome-ambulance" d="M86.46,48.772H84.243V33.794a6.651,6.651,0,0,0-1.954-4.7L68.448,15.255a6.651,6.651,0,0,0-4.7-1.954H57.64V6.651A6.653,6.653,0,0,0,50.989,0H6.651A6.652,6.652,0,0,0,0,6.651V50.989A6.653,6.653,0,0,0,6.651,57.64H8.868a13.3,13.3,0,0,0,26.6,0H53.206a13.3,13.3,0,0,0,26.6,0H86.46a2.223,2.223,0,0,0,2.217-2.217V50.989A2.223,2.223,0,0,0,86.46,48.772ZM22.169,64.291A6.651,6.651,0,1,1,28.82,57.64,6.652,6.652,0,0,1,22.169,64.291ZM42.122,29.929a1.112,1.112,0,0,1-1.108,1.108H33.254V38.8A1.112,1.112,0,0,1,32.145,39.9H25.495A1.112,1.112,0,0,1,24.386,38.8V31.037H16.627a1.112,1.112,0,0,1-1.108-1.108V23.278a1.112,1.112,0,0,1,1.108-1.108h7.759V14.41A1.112,1.112,0,0,1,25.495,13.3h6.651a1.112,1.112,0,0,1,1.108,1.108v7.759h7.759a1.112,1.112,0,0,1,1.108,1.108ZM66.508,64.291a6.651,6.651,0,1,1,6.651-6.651A6.653,6.653,0,0,1,66.508,64.291Zm11.085-28.82H57.64V19.952h6.11L77.592,33.794Z" fill="#092d54"/>
</svg>
