<svg xmlns="http://www.w3.org/2000/svg" width="79.996" height="80" viewBox="0 0 79.996 80">
  <path id="Icon_ionic-ios-person" data-name="Icon ionic-ios-person" d="M84.457,82.479c-1.5-6.625-10.062-9.854-13.021-10.9-3.25-1.146-7.875-1.417-10.854-2.083-1.708-.375-4.187-1.312-5.021-2.312s-.333-10.271-.333-10.271A30.9,30.9,0,0,0,57.6,52.4a58.313,58.313,0,0,0,1.75-7.9s1.708,0,2.313-3c.646-3.271,1.667-4.542,1.542-6.979-.125-2.4-1.437-2.333-1.437-2.333S63.04,28.708,63.186,21.5c.188-8.563-6.521-17-18.667-17-12.312,0-18.875,8.437-18.688,17,.167,7.208,1.4,10.687,1.4,10.687s-1.312-.062-1.437,2.333c-.125,2.438.9,3.708,1.542,6.979.583,3,2.313,3,2.313,3a58.312,58.312,0,0,0,1.75,7.9,30.9,30.9,0,0,0,2.375,4.521s.5,9.271-.333,10.271-3.313,1.937-5.021,2.312c-2.979.667-7.6.938-10.854,2.083C14.6,72.625,6.04,75.854,4.54,82.479A1.665,1.665,0,0,0,6.186,84.5H82.832A1.662,1.662,0,0,0,84.457,82.479Z" transform="translate(-4.501 -4.5)" fill="#052950"/>
</svg>
