<svg xmlns="http://www.w3.org/2000/svg" width="28.875" height="28.875" viewBox="0 0 28.875 28.875">
  <path id="Icon_awesome-question-circle" data-name="Icon awesome-question-circle" d="M29.438,15A14.438,14.438,0,1,1,15,.563,14.437,14.437,0,0,1,29.438,15ZM15.387,5.336A7.54,7.54,0,0,0,8.6,9.048a.7.7,0,0,0,.158.946l2.02,1.532a.7.7,0,0,0,.97-.124c1.04-1.319,1.753-2.084,3.336-2.084,1.189,0,2.66.765,2.66,1.919,0,.872-.72,1.32-1.894,1.978-1.369.768-3.182,1.723-3.182,4.113v.233a.7.7,0,0,0,.7.7h3.26a.7.7,0,0,0,.7-.7v-.078c0-1.657,4.843-1.726,4.843-6.21C22.171,7.9,18.669,5.336,15.387,5.336ZM15,19.774a2.678,2.678,0,1,0,2.678,2.678A2.681,2.681,0,0,0,15,19.774Z" transform="translate(-0.563 -0.563)" fill="#00b9ea"/>
</svg>
