<svg id="bold" xmlns="http://www.w3.org/2000/svg" width="512" height="512" viewBox="0 0 512 512"><defs><style>.cls-1{fill:#052951;}</style></defs><path class="cls-1" d="M256,73.75a16,16,0,0,1-16-16V16a16,16,0,0,1,32,0V57.75A16,16,0,0,1,256,73.75Z"/><path class="cls-1" d="M396.18,131.82a16,16,0,0,1-11.31-27.33L414.4,75A16,16,0,0,1,437,97.6l-29.52,29.53A16.07,16.07,0,0,1,396.18,131.82Z"/><path class="cls-1" d="M496,272H454.25a16,16,0,0,1,0-32H496a16,16,0,0,1,0,32Z"/><path class="cls-1" d="M425.71,441.71A15.86,15.86,0,0,1,414.4,437l-29.53-29.52a16,16,0,0,1,22.64-22.64L437,414.38a16,16,0,0,1-11.32,27.33Z"/><path class="cls-1" d="M86.29,441.71A16,16,0,0,1,75,414.38l29.52-29.53a16,16,0,1,1,22.64,22.64L97.62,437A15.94,15.94,0,0,1,86.29,441.71Z"/><path class="cls-1" d="M57.75,272H16a16,16,0,0,1,0-32H57.75a16,16,0,0,1,0,32Z"/><path class="cls-1" d="M115.82,131.82a15.91,15.91,0,0,1-11.31-4.69L75,97.6A16,16,0,0,1,97.62,75l29.53,29.52a16,16,0,0,1-11.33,27.33Z"/><path class="cls-1" d="M320,448v26.67A37.51,37.51,0,0,1,282.67,512H229.33C211.41,512,192,498.35,192,468.48V448Z"/><path class="cls-1" d="M350.08,140A149.87,149.87,0,0,0,224,110.08c-56.53,11.73-102.4,57.81-114.13,114.35-12,58,9.81,115.62,56.32,150.82,12.58,9.39,21.33,23.9,24.32,40.75v.21A3.64,3.64,0,0,1,192,416H320a2,2,0,0,1,1.07.21V416c3-16.21,12.58-31.15,27.3-42.67A149.41,149.41,0,0,0,350.08,140ZM336,266.67a16.12,16.12,0,0,1-16-16A58.63,58.63,0,0,0,261.33,192a16,16,0,1,1,0-32A90.87,90.87,0,0,1,352,250.67,16.12,16.12,0,0,1,336,266.67Z"/><path class="cls-1" d="M190.51,416H192a3.64,3.64,0,0,0-1.49.21Z"/><path class="cls-1" d="M321.07,416v.21A2,2,0,0,0,320,416Z"/></svg>