<?xml version="1.0" encoding="utf-8"?>
<!-- Generator: Adobe Illustrator 22.0.1, SVG Export Plug-In . SVG Version: 6.00 Build 0)  -->
<svg version="1.1" id="Lag_1" xmlns="http://www.w3.org/2000/svg" xmlns:xlink="http://www.w3.org/1999/xlink" x="0px" y="0px"
	 viewBox="0 0 24 24" style="enable-background:new 0 0 24 24;" xml:space="preserve">
<style type="text/css">
	.st0{fill:#052951;}
</style>
<g>
	<path class="st0" d="M22,20.6l-4.4-4.4c1.2-1.5,1.9-3.4,1.9-5.5c0-4.8-3.9-8.8-8.8-8.8C5.9,2,2,5.9,2,10.8s3.9,8.8,8.8,8.8
		c2.1,0,4-0.7,5.5-1.9l4.4,4.4L22,20.6z M4,10.8C4,7,7,4,10.8,4c3.7,0,6.8,3,6.8,6.8s-3,6.8-6.8,6.8C7,17.5,4,14.5,4,10.8z"/>
</g>
</svg>
