<?xml version="1.0" encoding="utf-8"?>
<!-- Generator: Adobe Illustrator 22.0.1, SVG Export Plug-In . SVG Version: 6.00 Build 0)  -->
<svg version="1.1" id="Lag_1" xmlns="http://www.w3.org/2000/svg" xmlns:xlink="http://www.w3.org/1999/xlink" x="0px" y="0px"
	 viewBox="0 0 24 24" style="enable-background:new 0 0 24 24;" xml:space="preserve">
<style type="text/css">
	.st0{fill:#052951;}
</style>
<path class="st0" d="M14.5,13.4c2.1-1.5,3.6-4.6,3.6-6.6c0-1.1-0.4-2.3-1-3.2c0,0-0.1-0.1-0.1-0.1c0.1-0.5,0.1-1,0.1-1.2
	c0-0.4-0.2-0.8-0.6-0.9c-0.3-0.1-0.7-0.1-1,0.1c-0.3,0-1.1-0.1-1.5-0.2c-0.3-0.1-0.6-0.1-1-0.2l-0.1,0c-0.2,0-0.3,0-0.5,0
	c-3.2,0-6.5,2-6.5,5.7c0,2.3,1.5,5.4,3.6,6.8c-3.4,1-6.4,3.7-6.4,7.4v1H21v-1C21,17.2,18.3,14.2,14.5,13.4z M7.8,6.8
	c0-3,3-3.8,4.6-3.8c0.1,0,0.2,0,0.4,0l0.1,0c0.2,0,0.5,0.1,0.8,0.1c0.4,0.1,0.9,0.2,1.3,0.2c-0.1,0.3,0,0.6,0.2,0.9
	c0.1,0.1,0.2,0.2,0.3,0.4c0,0,0,0,0,0c0.4,0.6,0.7,1.4,0.7,2.1c0,2.1-2.4,5.7-4.4,5.7C10,12.4,7.8,9,7.8,6.8z M5.2,20
	c0.6-2.9,4-4.9,7.3-4.9c3.4,0,6,2,6.5,4.9H5.2z"/>
</svg>
